<svg width="505" height="220" fill="none" xmlns="http://www.w3.org/2000/svg"><path d="M268.77 188.05c-5.9 0-10.73-4.83-10.73-10.73V71.21c0-5.9 4.83-10.73 10.73-10.73s10.73 4.83 10.73 10.73v106.11c-.01 5.9-4.83 10.73-10.73 10.73zM358.07 169.15a34.06 34.06 0 0 1-6.88-7.82c-.07-.09-3.85-5.19-4.58-9.83-.07-.46-.13-.97-.17-1.5-.03-.44-.04-.8-.05-1.09V71.22c0-5.9-4.83-10.73-10.73-10.73s-10.73 4.83-10.73 10.73v76.04c-.02.58-.03 1.4 0 2.38.31 9.36 4.44 21.54 14.77 29.78 9.75 7.78 20.48 8.44 24.3 8.49h.06c3.33-.02 8.27-.46 13.78-2.56 8.54-3.25 13.81-8.71 16.27-11.65-2.95 1.42-8.8 3.72-16.36 3.3-10.01-.55-16.91-5.54-19.68-7.85z" fill="#07224B"/><path d="M403.1 147.25V42.05c0-5.9-4.83-10.73-10.73-10.73s-10.73 4.83-10.73 10.73v87.33c-.02 6.87-.03 13.74-.05 20.61-.06.5-.11 1-.17 1.5-.13 4.19-1.9 7.96-4.7 10.69-3.88 3.78-8.76 4.21-10.84 4.41a20.055 20.055 0 0 1-3.74 0c-1.43-.15-6.72-.8-10.96-5.26-3.65-3.84-4.39-8.27-4.58-9.84-.07-.46-.13-.97-.17-1.5-.03-.44-.04-.8-.05-1.09V71.21c0-5.9-4.83-10.73-10.73-10.73s-10.73 4.83-10.73 10.73v76.04c-.03.53-.06 1.37 0 2.38.31 9.36 4.44 21.54 14.77 29.78 7.18 5.73 14.87 7.59 19.96 8.2v.29-.29c1.83.22 3.33.28 4.34.29h.06c3.82-.05 14.54-.7 24.3-8.49 10.32-8.24 14.45-20.41 14.77-29.78.02-.97 0-1.79-.02-2.38zM502.21 125.389c-.65-1.8-1.72-4.639-3.8-7.969-.55-.88-1.13-1.721-1.75-2.531a37.748 37.748 0 0 0-4.05-4.479 45.738 45.738 0 0 0-3.4-2.891c-8.58-6.58-18.78-9.729-23.29-10.909-.2-.05-.4-.1-.58-.15-.19-.05-1.39-.35-3.2-.87-3.26-.94-8.53-2.6-13.57-4.81-1.12-.49-2.23-1.01-3.3-1.55-.25-.13-.56-.29-.91-.49-.18-.1-.37-.21-.56-.33-.25-.16-.53-.34-.81-.53-.33-.23-.66-.48-1.01-.76-.52-.42-1.05-.9-1.58-1.46l-.01-.01c-.25-.26-.49-.53-.71-.8-.06-.07-.11-.14-.16-.21-.17-.21-.34-.43-.5-.64-.04-.06-.08-.11-.12-.17-.17-.24-.33-.47-.48-.71l-.06-.09c-.17-.27-.33-.54-.47-.8 0 0 0-.01-.01-.01-.27-.48-.57-1.08-.87-1.79a18.673 18.673 0 0 1-.5-1.38c-.06-.19-.12-.37-.17-.54l-.06-.21c-.06-.23-.12-.44-.17-.65-.05-.21-.1-.42-.14-.64l-.03-.13c-.06-.33-.12-.66-.16-1.01-.11-.87-.36-2.94.05-5.42 0-.02.01-.05.01-.08.04-.25.09-.5.15-.76.01-.05.03-.11.04-.16.05-.23.11-.47.18-.7.02-.08.05-.16.08-.25.06-.21.13-.43.2-.64.04-.11.09-.22.13-.33.07-.19.14-.38.22-.57.06-.15.14-.29.2-.44.07-.16.14-.31.22-.47.09-.19.2-.37.31-.56.07-.12.12-.23.19-.35a13.765 13.765 0 0 1 2.4-2.97c1.89-1.77 3.98-2.73 5.64-3.5 3.87-1.78 7.21-2.01 9.89-2.2.59-.04 1.17-.06 1.73-.07H458.95c2.88.08 5.13.49 6.62.78 2.23.51 5.33 1.24 8.22 2.67 1.91 1.05 3.38 2.21 4.44 3.19.25.26.52.5.75.78.69.85 2.14 2.87 4.76 5.16.99.87 1.87 1.52 2.45 1.95 1.69 1.3 3.21 2.17 5.26 2.46.76.11 3.01.4 5.22-.65 4.41-2.08 5.38-7.92 5.52-8.8 1.71-10.3-10.19-20.83-17.52-25.44-3.7-2.33-10.37-5.75-19.99-6.76-3.9-.53-10.35-.93-17.86 1.02-2.62.68-8.8 2.37-15.13 6.85-7.26 4.69-11.05 10.9-11.93 12.43-3.89 6.7-4.55 13.07-4.88 16.6-.23 2.09-.81 9 1.79 17.42.13.42.25.81.38 1.17l.12.36c.22.65.43 1.21.61 1.65.22.56.45 1.1.68 1.63 3.5 7.93 8.4 12.78 10.22 14.46 6.85 6.35 14.15 8.83 23.2 11.91 4.58 1.56 8.5 2.53 11.27 3.13.41.11.86.239 1.34.399 1.46.46 3.24 1.141 5.17 2.131 3.46 1.78 8.72 4.48 11.77 10.21.55 1.04 4.66 9.079.79 17.239-3.21 6.78-9.79 9.161-12.09 9.991-3.55 1.29-7.23 1.32-10.32 1.41-1.37.02-3.11.03-5.15-.17-.23-.02-.46-.05-.69-.08-.27-.03-.53-.06-.81-.1-1.08-.18-8.49-1.56-15.91-6.75a31.632 31.632 0 0 1-3.95-3.31c-.55-.58-1.29-1.43-1.33-1.48-.73-.83-1.1-1.26-1.57-1.87-.18-.24-.35-.47-.51-.69-.27-.39-.44-.65-.83-1.11a.179.179 0 0 1-.04-.051c-.31-.39-.65-.749-1.04-1.089l-.08-.081s0 .011.01.011a8.22 8.22 0 0 0-.83-.64c-.57-.38-3.32-2.23-6.69-1.8-5.41.69-8.04 6.689-8.67 8.139-1.52 3.47-1.37 6.621-1.21 8.061.1.89.49 3.72 2.64 7.2 3.36 5.45 11.25 12.86 23.09 17.39 9.98 3.82 18.44 3.94 23.36 3.96 3.39.02 7.58.009 12.91-1.321 6.73-1.67 11.76-4.569 14.9-6.719 2.65-2.07 6.27-5.38 9.51-10.27a43.68 43.68 0 0 0 6.22-14.761c1.48-5.49 3.48-16.59-.93-28.83z" fill="#07224B"/><path d="M335.55 31.33h-66.54c-5.93 0-10.73 4.8-10.73 10.73 0 5.93 4.8 10.73 10.73 10.73h22.79c-.16.74-.25 1.5-.25 2.29v122.24c0 5.93 4.8 10.73 10.73 10.73 5.93 0 10.73-4.8 10.73-10.73V55.08c0-.79-.09-1.55-.25-2.29h22.79c5.93 0 10.73-4.8 10.73-10.73 0-5.93-4.8-10.73-10.73-10.73z" fill="#07224B"/><path d="M163.71 198.24c30.14-17.65 43.76-43.76 48.23-53.48 4.41-9.59 12.66-27.52 10.76-50.89-2.77-34.1-25.81-63.33-53.81-78.12-33.92-17.92-67.38-10.56-80.06-6.81-53.6 15.85-73.19 66.87-76.62 75.81-5.57 14.52-15.68 40.84-5.06 70.05 13.6 37.42 50.8 51.02 59.32 54.13 47.17 17.25 88.96-5.85 97.24-10.69z" fill="url(#a)"/><path d="M163.48 193.41c-4.97 3.33-15.57 8.71-16.16 8.97-.33.15-.67.29-1 .44-.2.09-.4.17-.6.25 1.37-.6.3-.13-.03.01-1.13.47-2.28.91-3.43 1.34-2.94 1.09-5.92 2.059-8.94 2.889-4.7 1.3-9.48 2.261-14.31 2.941-.74.11.1-.021.21-.031-.19.01-.4.05-.6.08l-1.21.151c-.95.11-1.89.21-2.84.29a113.158 113.158 0 0 1-15.37.34c-2.62-.12-5.24-.33-7.85-.63-.51-.06-1.02-.121-1.52-.191-.9-.11 1.07.151.2.031-.46-.06-.92-.131-1.39-.201-1.74-.26-3.46-.56-5.19-.91-4.7-.93-9.34-2.149-13.88-3.689-1.39-.47-2.77-.98-4.14-1.51-.75-.29-1.5-.59-2.24-.9-.18-.07-.36-.17-.54-.22.1.03.84.359.18.069-.39-.17-.77-.33-1.16-.5-2.42-1.07-4.81-2.229-7.15-3.479-4.42-2.36-8.64-5.07-12.66-8.05l-.83-.62c-.13-.1-.26-.21-.4-.3.05.04.78.61.25.19-.5-.4-1.01-.791-1.51-1.201-.8-.65-1.58-1.299-2.35-1.969a91.157 91.157 0 0 1-5.07-4.76 96.16 96.16 0 0 1-5.9-6.54c-.35-.42-.69-.841-1.03-1.271-.17-.21-.34-.429-.51-.639-.29-.37.61.79.33.42-.08-.11-.16-.21-.24-.31-.41-.53-.8-1.07-1.19-1.62-3.57-5-6.6-10.391-9.05-16.021-.13-.29-.51-1.26-.02-.04-.1-.26-.21-.519-.32-.779-.21-.51-.41-1.02-.61-1.53-.32-.83-.62-1.66-.91-2.49-.34-.98-.65-1.96-.94-2.96-1.03-3.55-1.76-7.201-2.28-10.861-.14-1 .11.901-.02-.119-.05-.38-.09-.751-.14-1.131-.09-.74-.16-1.489-.23-2.229-.14-1.56-.24-3.12-.3-4.68-.11-3-.06-5.99.1-8.99.11-2.15.28-4.3.54-6.45.04-.3.08-.601.11-.901-.14 1.33-.03.251.02-.069.11-.73.22-1.461.35-2.181.25-1.44.54-2.859.88-4.279a74.48 74.48 0 0 1 2.98-9.67l.48-1.23c.08-.2.16-.42.25-.62-.35.75-.09.2-.02.04.38-.87.77-1.74 1.18-2.6.7-1.47 1.45-2.91 2.24-4.33 1.37-2.45 2.89-4.82 4.52-7.1.33-.46.66-.92 1-1.37.16-.21.32-.43.48-.64.62-.82-.56.71.06-.08.56-.72 1.13-1.42 1.71-2.13 2.35-2.86 4.88-5.57 7.57-8.12 2.23-2.12 4.57-4.11 6.99-6.01.15-.12.58-.49-.1.07.16-.13.33-.25.5-.38.34-.25.67-.51 1.01-.76.74-.55 1.49-1.08 2.25-1.61 1.05-.73 2.11-1.44 3.17-2.14 2.21-1.46 4.48-2.85 6.83-4.08 1.28-.67 2.59-1.28 3.91-1.87.5-.22-.73.3-.22.09l.51-.21c.35-.14.7-.28 1.05-.41a55.176 55.176 0 0 1 11.35-2.94c.94-.14 1.98-1.09 2.44-1.87.51-.87.73-2.16.41-3.14-.32-.99-.93-1.94-1.87-2.44-1.03-.54-2-.58-3.14-.41-6.52.99-12.82 3.15-18.66 6.21-5.33 2.8-10.34 6.32-15.08 10.01-7.36 5.73-13.78 12.51-19.2 20.08-7.77 10.84-12.43 23.51-14.08 36.71-1.35 10.86-.89 22.01 1.49 32.7 1.71 7.66 4.77 15.02 8.58 21.85 5.16 9.25 12.05 17.609 20.05 24.549 7.96 6.9 16.91 12.591 26.56 16.821 10.69 4.69 21.84 7.65 33.44 9 12.76 1.49 25.78.75 38.34-1.97 0 0 15.92-3.55 30.83-11.74 37.46-20.58 55.89-65.621 58.94-73.321a2425.8 2425.8 0 0 0-14.82 18.21c-2.88 3.57-5.74 7.131-8.58 10.691-13.67 18.18-26.85 29.23-32.46 33z" fill="#fff"/><path d="M66.72 49.16c2.29-.33 2.08-.48 3.25-.59 3.37-.32 8.63.48 12.06 4.46 3.32 3.86 3.13 8.55 3.05 9.72-.01 3.12-.03 6.25-.04 9.37-.03 5.81-.05 11.62-.08 17.43-.03 6.36-.06 12.719-.08 19.089-.06 13.24-.1 14.61-.09 19.33.02 7.69.13 13.9.22 17.83l.06 12.58c.01 1.76.03 3.53.04 5.29-.04 1.48-.32 3.98-1.84 6.51-.51.85-1.07 1.55-1.6 2.12-.85.86-2.29 2.091-4.38 2.981-.59.25-2.01.799-3.94 1.019-4.27.48-6.07-1.25-7.76-.17-.78.5-1.6 1.63-1.65 4.46.06.56.25 1.481.92 2.281.89 1.08 2.12 1.36 3.64 1.71.32.07 1.43.32 3.65.37 1.37.03 2.67.06 4.27-.17.7-.1 4-.631 7.65-2.901 1.9-1.18 3.13-2.359 3.4-2.629 1.06-1.03 3.43-3.56 4.79-7.56.49-1.45.67-2.561.87-3.851.62-3.97.22-6.28.07-11.75-.06-2.06-.01-4.129-.03-6.189-.03-4.97-.01-3.79-.08-17.44-.08-17.76-.09-15.5-.09-19.06 0-3.49.01-3.04.09-19.33.03-5.99.05-11.98.08-17.96.02-5.08.04-10.15.07-15.23.12-1.85.11-5.48-1.71-9.46-.42-.91-3.18-6.73-9.83-9.72-4.91-2.21-9.4-1.75-11.77-1.51-2.26.23-4.1.72-5.39 1.13-.87.8-6.61 6.14-5.54 7.84.67 1.03 3.88.56 7.72 0z" fill="#fff"/><path d="M64.67 25.97c4.97-3.33 15.57-8.71 16.16-8.97.33-.15.67-.3 1-.44.2-.09.4-.17.6-.25-1.37.6-.3.13.03-.01 1.13-.47 2.28-.91 3.43-1.34 2.94-1.09 5.92-2.06 8.94-2.89 4.7-1.3 9.48-2.26 14.31-2.94.74-.11-.1.02-.21.03.19-.01.4-.05.6-.08l1.21-.15c.95-.11 1.89-.21 2.84-.29 1.81-.16 3.63-.28 5.45-.36 3.31-.14 6.62-.13 9.92.02 2.62.12 5.24.33 7.85.63.51.06 1.02.12 1.52.19.9.11-1.07-.15-.2-.03.46.07.92.13 1.39.2 1.74.26 3.46.56 5.19.91 4.7.93 9.34 2.15 13.88 3.69 1.39.47 2.77.98 4.14 1.51.75.29 1.5.59 2.24.9.18.07.36.17.54.22-.1-.03-.84-.36-.18-.07.39.17.77.33 1.16.5a107.1 107.1 0 0 1 7.15 3.48c4.42 2.36 8.64 5.07 12.66 8.05l.83.62c.13.1.26.21.4.3-.05-.04-.78-.61-.25-.19.5.4 1.01.79 1.51 1.2.8.65 1.58 1.3 2.35 1.97 1.75 1.52 3.44 3.11 5.07 4.76 2.06 2.09 4.04 4.27 5.9 6.54.35.42.69.84 1.03 1.27.17.21.34.43.51.64.29.37-.61-.79-.33-.42.08.11.16.21.24.31.41.53.8 1.07 1.19 1.62 3.57 5 6.6 10.39 9.05 16.02.13.3.51 1.26.02.04.1.26.21.52.32.78.21.51.41 1.02.61 1.53.32.83.62 1.66.91 2.49.34.98.65 1.97.94 2.96 1.03 3.55 1.76 7.2 2.28 10.86.14 1-.11-.9.02.12.05.38.09.75.14 1.13.09.74.16 1.49.23 2.23.14 1.56.24 3.12.3 4.68.11 3 .06 5.99-.1 8.99-.11 2.15-.28 4.3-.54 6.45-.04.3-.08.601-.11.901.14-1.33.03-.251-.02.069-.11.73-.22 1.461-.35 2.181-.25 1.44-.54 2.859-.88 4.279a74.494 74.494 0 0 1-2.98 9.671l-.48 1.229c-.08.2-.16.421-.25.621.35-.75.09-.2.02-.04-.38.87-.77 1.739-1.18 2.599a77 77 0 0 1-2.24 4.33 76.094 76.094 0 0 1-4.52 7.101c-.33.46-.66.92-1 1.37-.16.21-.32.43-.48.64-.62.82.56-.71-.06.08-.56.72-1.13 1.42-1.71 2.13a89.374 89.374 0 0 1-7.57 8.12 97.488 97.488 0 0 1-6.99 6.009c-.15.12-.58.49.1-.07-.16.13-.33.251-.5.381-.34.25-.67.51-1.01.76-.74.55-1.49 1.079-2.25 1.609-1.05.73-2.11 1.441-3.17 2.141-2.21 1.46-4.48 2.85-6.83 4.08-1.28.67-2.59 1.28-3.91 1.87-.5.22.73-.301.22-.091l-.51.21c-.35.14-.7.28-1.05.41a55.176 55.176 0 0 1-11.35 2.941c-.94.14-1.98 1.09-2.44 1.87-.51.87-.73 2.159-.41 3.139.32.99.93 1.941 1.87 2.441 1.03.54 2 .579 3.14.409 6.52-.99 12.82-3.15 18.66-6.21 5.33-2.8 10.34-6.32 15.08-10.01 7.36-5.73 13.78-12.51 19.2-20.08 7.77-10.84 12.43-23.51 14.08-36.71 1.35-10.86.89-22.01-1.49-32.7-1.71-7.66-4.77-15.02-8.58-21.85-5.16-9.25-12.05-17.61-20.05-24.55-7.96-6.9-16.91-12.59-26.56-16.82-10.69-4.69-21.84-7.65-33.44-9-12.76-1.49-25.78-.75-38.34 1.97 0 0-15.92 3.55-30.83 11.74C30.29 35.13 11.86 80.17 8.81 87.87a2425.8 2425.8 0 0 0 14.82-18.21c2.88-3.57 5.74-7.13 8.58-10.69 13.67-18.18 26.85-29.23 32.46-33z" fill="#fff"/><path d="M161.44 170.22c-2.29.33-2.08.479-3.25.589-3.37.32-8.63-.48-12.06-4.459-3.32-3.86-3.13-8.55-3.05-9.72.01-3.12.03-6.25.04-9.37.03-5.81.05-11.62.08-17.43.03-6.36.06-12.72.08-19.09.06-13.24.1-14.61.09-19.33-.02-7.69-.13-13.9-.22-17.83L143.09 61c-.01-1.76-.03-3.53-.04-5.29.04-1.48.32-3.98 1.84-6.51.51-.85 1.07-1.55 1.6-2.12.85-.86 2.29-2.09 4.38-2.98.59-.25 2.01-.8 3.94-1.02 4.27-.48 6.07 1.25 7.76.17.78-.5 1.6-1.63 1.65-4.46-.06-.56-.25-1.48-.92-2.28-.89-1.08-2.12-1.36-3.64-1.71-.32-.07-1.43-.32-3.65-.37-1.37-.03-2.67-.06-4.27.17-.7.1-4 .63-7.65 2.9-1.9 1.18-3.13 2.36-3.4 2.63a19.262 19.262 0 0 0-4.79 7.56c-.49 1.45-.67 2.56-.87 3.85-.62 3.97-.22 6.28-.07 11.75.06 2.06.01 4.12.03 6.19.03 4.97.01 3.79.08 17.44.08 17.76.09 15.5.09 19.06 0 3.49-.01 3.039-.09 19.329-.03 5.99-.05 11.98-.08 17.96-.02 5.08-.04 10.151-.07 15.231-.12 1.85-.11 5.48 1.71 9.46.42.91 3.18 6.73 9.83 9.72 4.91 2.21 9.4 1.75 11.77 1.51 2.26-.23 4.1-.721 5.39-1.131.87-.8 6.61-6.139 5.54-7.839-.68-1.03-3.89-.56-7.72 0z" fill="#fff"/><defs><linearGradient id="a" x1="2.494" y1="109.728" x2="222.978" y2="109.728" gradientUnits="userSpaceOnUse"><stop offset=".21" stop-color="#1C2747"/><stop offset=".818" stop-color="#259938"/></linearGradient></defs></svg>