<svg width="505" height="220" viewBox="0 0 505 220" fill="none" xmlns="http://www.w3.org/2000/svg">
<path d="M268.77 188.05C262.87 188.05 258.04 183.22 258.04 177.32V71.21C258.04 65.31 262.87 60.4805 268.77 60.4805C274.67 60.4805 279.5 65.31 279.5 71.21V177.32C279.49 183.22 274.67 188.05 268.77 188.05Z" fill="#07224B"/>
<path d="M358.07 169.15C354.71 166.35 352.52 163.41 351.19 161.33C351.12 161.24 347.34 156.14 346.61 151.5C346.54 151.04 346.48 150.53 346.44 150C346.41 149.56 346.4 149.2 346.39 148.91V71.2197C346.39 65.3197 341.56 60.4902 335.66 60.4902C329.76 60.4902 324.93 65.3197 324.93 71.2197V147.26C324.91 147.84 324.9 148.66 324.93 149.64C325.24 159 329.37 171.18 339.7 179.42C349.45 187.2 360.18 187.86 364 187.91C364.01 187.91 364.02 187.91 364.03 187.91C364.04 187.91 364.05 187.91 364.06 187.91C367.39 187.89 372.33 187.45 377.84 185.35C386.38 182.1 391.65 176.64 394.11 173.7C391.16 175.12 385.31 177.42 377.75 177C367.74 176.45 360.84 171.46 358.07 169.15Z" fill="#07224B"/>
<path d="M403.1 147.25V106.82V100.87V62.4102V58.0703V42.0498C403.1 36.1498 398.27 31.3203 392.37 31.3203C386.47 31.3203 381.64 36.1498 381.64 42.0498V58.0703V62.4102V100.87V106.82V129.38C381.62 136.25 381.61 143.12 381.59 149.99C381.53 150.49 381.48 150.99 381.42 151.49C381.29 155.68 379.52 159.45 376.72 162.18C372.84 165.96 367.96 166.39 365.88 166.59C364.92 166.68 364.07 166.69 363.42 166.67C362.77 166.65 362.32 166.61 362.14 166.59C360.71 166.44 355.42 165.79 351.18 161.33C347.53 157.49 346.79 153.06 346.6 151.49C346.53 151.03 346.47 150.52 346.43 149.99C346.4 149.55 346.39 149.19 346.38 148.9V71.21C346.38 65.31 341.55 60.4805 335.65 60.4805C329.75 60.4805 324.92 65.31 324.92 71.21V147.25C324.89 147.78 324.86 148.62 324.92 149.63C325.23 158.99 329.36 171.17 339.69 179.41C346.87 185.14 354.56 187 359.65 187.61V187.9C359.65 187.8 359.65 187.71 359.65 187.61C361.48 187.83 362.98 187.89 363.99 187.9C364 187.9 364.01 187.9 364.02 187.9C364.03 187.9 364.04 187.9 364.05 187.9C367.87 187.85 378.59 187.2 388.35 179.41C398.67 171.17 402.8 159 403.12 149.63C403.14 148.66 403.12 147.84 403.1 147.25Z" fill="#07224B"/>
<path d="M502.21 125.389C501.56 123.589 500.49 120.75 498.41 117.42C497.86 116.54 497.28 115.699 496.66 114.889C495.73 113.679 494.73 112.53 493.68 111.46C493.33 111.1 492.97 110.75 492.61 110.41C491.88 109.72 491.13 109.07 490.37 108.44C489.99 108.13 489.6 107.819 489.21 107.519C480.63 100.939 470.43 97.7901 465.92 96.6101C465.72 96.5601 465.52 96.5097 465.34 96.4597C465.15 96.4097 463.95 96.1096 462.14 95.5896C458.88 94.6496 453.61 92.99 448.57 90.78C447.45 90.29 446.34 89.7702 445.27 89.2302C445.02 89.1002 444.71 88.94 444.36 88.74C444.18 88.64 443.99 88.5299 443.8 88.4099C443.55 88.2499 443.27 88.0696 442.99 87.8797C442.66 87.6497 442.33 87.3999 441.98 87.1199C441.46 86.6999 440.93 86.2199 440.4 85.6599L440.39 85.6502C440.14 85.3902 439.9 85.1194 439.68 84.8494C439.62 84.7794 439.57 84.7094 439.52 84.6394C439.35 84.4294 439.18 84.2098 439.02 83.9998C438.98 83.9398 438.94 83.8898 438.9 83.8298C438.73 83.5898 438.57 83.3599 438.42 83.1199C438.4 83.0899 438.38 83.06 438.36 83.03C438.19 82.76 438.03 82.4902 437.89 82.2302C437.89 82.2302 437.89 82.2195 437.88 82.2195C437.61 81.7395 437.31 81.1395 437.01 80.4295C436.83 79.9795 436.67 79.5602 436.54 79.1502C436.53 79.1202 436.52 79.0896 436.51 79.0496C436.45 78.8596 436.39 78.6795 436.34 78.5095C436.32 78.4395 436.3 78.3696 436.28 78.2996C436.22 78.0696 436.16 77.8602 436.11 77.6502C436.06 77.4402 436.01 77.2295 435.97 77.0095C435.96 76.9695 435.95 76.9197 435.94 76.8797C435.88 76.5496 435.82 76.2199 435.78 75.8699C435.67 74.9999 435.42 72.93 435.83 70.45C435.83 70.43 435.84 70.3999 435.84 70.3699C435.88 70.1199 435.93 69.8701 435.99 69.6101C436 69.5601 436.02 69.5 436.03 69.45C436.08 69.22 436.14 68.9798 436.21 68.7498C436.23 68.6698 436.26 68.5898 436.29 68.4998C436.35 68.2898 436.42 68.0701 436.49 67.8601C436.53 67.7501 436.58 67.64 436.62 67.53C436.69 67.34 436.76 67.1497 436.84 66.9597C436.9 66.8097 436.98 66.6693 437.04 66.5193C437.11 66.3593 437.18 66.2096 437.26 66.0496C437.35 65.8596 437.46 65.68 437.57 65.49C437.64 65.37 437.69 65.2594 437.76 65.1394C437.94 64.8394 438.14 64.54 438.35 64.24C438.92 63.44 439.53 62.7597 440.16 62.1697C442.05 60.3997 444.14 59.4397 445.8 58.6697C449.67 56.8897 453.01 56.6595 455.69 56.4695C456.28 56.4295 456.86 56.4102 457.42 56.4002C457.7 56.4002 457.97 56.4002 458.25 56.4002C458.49 56.4002 458.72 56.4002 458.95 56.4002C461.83 56.4802 464.08 56.8895 465.57 57.1795C467.8 57.6895 470.9 58.4194 473.79 59.8494C475.7 60.8994 477.17 62.0598 478.23 63.0398C478.48 63.2998 478.75 63.5401 478.98 63.8201C479.67 64.6701 481.12 66.6902 483.74 68.9802C484.73 69.8502 485.61 70.4995 486.19 70.9295C487.88 72.2295 489.4 73.0994 491.45 73.3894C492.21 73.4994 494.46 73.79 496.67 72.74C501.08 70.66 502.05 64.8202 502.19 63.9402C503.9 53.6402 492 43.1098 484.67 38.4998C480.97 36.1698 474.3 32.75 464.68 31.74C460.78 31.21 454.33 30.8095 446.82 32.7595C444.2 33.4395 438.02 35.1301 431.69 39.6101C424.43 44.3001 420.64 50.5098 419.76 52.0398C415.87 58.7398 415.21 65.1094 414.88 68.6394C414.65 70.7294 414.07 77.6393 416.67 86.0593C416.8 86.4793 416.92 86.8702 417.05 87.2302C417.09 87.3502 417.13 87.4696 417.17 87.5896C417.39 88.2396 417.6 88.8 417.78 89.24C418 89.8 418.23 90.3399 418.46 90.8699C421.96 98.7999 426.86 103.65 428.68 105.33C435.53 111.68 442.83 114.16 451.88 117.24C456.46 118.8 460.38 119.77 463.15 120.37C463.56 120.48 464.01 120.609 464.49 120.769C465.95 121.229 467.73 121.91 469.66 122.9C473.12 124.68 478.38 127.38 481.43 133.11C481.98 134.15 486.09 142.189 482.22 150.349C479.01 157.129 472.43 159.51 470.13 160.34C466.58 161.63 462.9 161.66 459.81 161.75C458.44 161.77 456.7 161.78 454.66 161.58C454.43 161.56 454.2 161.53 453.97 161.5C453.7 161.47 453.44 161.44 453.16 161.4C452.08 161.22 444.67 159.84 437.25 154.65C435.66 153.52 434.36 152.39 433.3 151.34C432.75 150.76 432.01 149.91 431.97 149.86C431.24 149.03 430.87 148.6 430.4 147.99C430.22 147.75 430.05 147.52 429.89 147.3C429.62 146.91 429.45 146.65 429.06 146.19C429.04 146.17 429.03 146.159 429.02 146.139C428.71 145.749 428.37 145.39 427.98 145.05C427.96 145.03 427.92 144.989 427.9 144.969C427.9 144.969 427.9 144.98 427.91 144.98C427.66 144.76 427.39 144.55 427.08 144.34C426.51 143.96 423.76 142.11 420.39 142.54C414.98 143.23 412.35 149.229 411.72 150.679C410.2 154.149 410.35 157.3 410.51 158.74C410.61 159.63 411 162.46 413.15 165.94C416.51 171.39 424.4 178.8 436.24 183.33C446.22 187.15 454.68 187.27 459.6 187.29C462.99 187.31 467.18 187.299 472.51 185.969C479.24 184.299 484.27 181.4 487.41 179.25C490.06 177.18 493.68 173.87 496.92 168.98C500.72 163.23 502.37 157.749 503.14 154.219C504.62 148.729 506.62 137.629 502.21 125.389Z" fill="#07224B"/>
<path d="M335.55 31.3301H269.01C263.08 31.3301 258.28 36.1296 258.28 42.0596C258.28 47.9896 263.08 52.79 269.01 52.79H291.8C291.64 53.53 291.55 54.2901 291.55 55.0801V177.32C291.55 183.25 296.35 188.05 302.28 188.05C308.21 188.05 313.01 183.25 313.01 177.32V55.0801C313.01 54.2901 312.92 53.53 312.76 52.79H335.55C341.48 52.79 346.28 47.9896 346.28 42.0596C346.28 36.1296 341.48 31.3301 335.55 31.3301Z" fill="#07224B"/>
<path d="M163.71 198.24C193.85 180.59 207.47 154.48 211.94 144.76C216.35 135.17 224.6 117.24 222.7 93.8702C219.93 59.7702 196.89 30.5401 168.89 15.7501C134.97 -2.16989 101.51 5.19054 88.83 8.94054C35.23 24.7905 15.64 75.8101 12.21 84.7501C6.64001 99.2701 -3.47001 125.59 7.14999 154.8C20.75 192.22 57.95 205.82 66.47 208.93C113.64 226.18 155.43 203.08 163.71 198.24Z" fill="url(#paint0_linear_3_3770)"/>
<path d="M163.48 193.41C158.51 196.74 147.91 202.12 147.32 202.38C146.99 202.53 146.65 202.67 146.32 202.82C146.12 202.91 145.92 202.99 145.72 203.07C147.09 202.47 146.02 202.94 145.69 203.08C144.56 203.55 143.41 203.99 142.26 204.42C139.32 205.51 136.34 206.479 133.32 207.309C128.62 208.609 123.84 209.57 119.01 210.25C118.27 210.36 119.11 210.229 119.22 210.219C119.03 210.229 118.82 210.269 118.62 210.299C118.22 210.349 117.81 210.4 117.41 210.45C116.46 210.56 115.52 210.66 114.57 210.74C112.76 210.9 110.94 211.019 109.12 211.099C105.81 211.239 102.5 211.23 99.2 211.08C96.58 210.96 93.96 210.75 91.35 210.45C90.84 210.39 90.33 210.329 89.83 210.259C88.93 210.149 90.9 210.41 90.03 210.29C89.57 210.23 89.11 210.159 88.64 210.089C86.9 209.829 85.18 209.529 83.45 209.179C78.75 208.249 74.11 207.03 69.57 205.49C68.18 205.02 66.8 204.51 65.43 203.98C64.68 203.69 63.93 203.39 63.19 203.08C63.01 203.01 62.83 202.91 62.65 202.86C62.75 202.89 63.49 203.219 62.83 202.929C62.44 202.759 62.06 202.599 61.67 202.429C59.25 201.359 56.86 200.2 54.52 198.95C50.1 196.59 45.88 193.88 41.86 190.9C41.58 190.69 41.31 190.49 41.03 190.28C40.9 190.18 40.77 190.07 40.63 189.98C40.68 190.02 41.41 190.59 40.88 190.17C40.38 189.77 39.87 189.379 39.37 188.969C38.57 188.319 37.79 187.67 37.02 187C35.27 185.48 33.58 183.89 31.95 182.24C29.89 180.15 27.91 177.97 26.05 175.7C25.7 175.28 25.36 174.859 25.02 174.429C24.85 174.219 24.68 174 24.51 173.79C24.22 173.42 25.12 174.58 24.84 174.21C24.76 174.1 24.68 174 24.6 173.9C24.19 173.37 23.8 172.83 23.41 172.28C19.84 167.28 16.81 161.889 14.36 156.259C14.23 155.969 13.85 154.999 14.34 156.219C14.24 155.959 14.13 155.7 14.02 155.44C13.81 154.93 13.61 154.42 13.41 153.91C13.09 153.08 12.79 152.25 12.5 151.42C12.16 150.44 11.85 149.46 11.56 148.46C10.53 144.91 9.79999 141.259 9.27999 137.599C9.13999 136.599 9.38999 138.5 9.25999 137.48C9.20999 137.1 9.16999 136.729 9.11999 136.349C9.02999 135.609 8.95999 134.86 8.88999 134.12C8.74999 132.56 8.64999 131 8.58999 129.44C8.47999 126.44 8.53 123.45 8.69 120.45C8.8 118.3 8.96999 116.15 9.22999 114C9.26999 113.7 9.30999 113.399 9.33999 113.099C9.19999 114.429 9.31 113.35 9.36 113.03C9.47 112.3 9.58 111.569 9.71 110.849C9.96 109.409 10.25 107.99 10.59 106.57C11.36 103.29 12.36 100.05 13.57 96.9C13.73 96.49 13.89 96.0796 14.05 95.6696C14.13 95.4696 14.21 95.2494 14.3 95.0494C13.95 95.7994 14.21 95.2495 14.28 95.0895C14.66 94.2195 15.05 93.3499 15.46 92.4899C16.16 91.0199 16.91 89.5798 17.7 88.1598C19.07 85.7098 20.59 83.3392 22.22 81.0592C22.55 80.5992 22.88 80.1401 23.22 79.6901C23.38 79.4801 23.54 79.2594 23.7 79.0494C24.32 78.2294 23.14 79.7594 23.76 78.9694C24.32 78.2494 24.89 77.5495 25.47 76.8395C27.82 73.9795 30.35 71.2694 33.04 68.7194C35.27 66.5994 37.61 64.6096 40.03 62.7096C40.18 62.5896 40.61 62.2199 39.93 62.7799C40.09 62.6499 40.26 62.53 40.43 62.4C40.77 62.15 41.1 61.8893 41.44 61.6393C42.18 61.0893 42.93 60.5599 43.69 60.0299C44.74 59.2999 45.8 58.5893 46.86 57.8893C49.07 56.4293 51.34 55.0392 53.69 53.8092C54.97 53.1392 56.28 52.5301 57.6 51.9401C58.1 51.7201 56.87 52.2399 57.38 52.0299C57.55 51.9599 57.72 51.8899 57.89 51.8199C58.24 51.6799 58.59 51.5398 58.94 51.4098C59.75 51.0998 60.57 50.8194 61.4 50.5494C64.3 49.6094 67.27 48.9194 70.29 48.4694C71.23 48.3294 72.27 47.3792 72.73 46.5992C73.24 45.7292 73.46 44.4396 73.14 43.4596C72.82 42.4696 72.21 41.5192 71.27 41.0192C70.24 40.4792 69.27 40.44 68.13 40.61C61.61 41.6 55.31 43.7599 49.47 46.8199C44.14 49.6199 39.13 53.1397 34.39 56.8297C27.03 62.5597 20.61 69.3398 15.19 76.9098C7.42 87.7498 2.76 100.42 1.11 113.62C-0.240005 124.48 0.220001 135.63 2.6 146.32C4.31 153.98 7.36999 161.34 11.18 168.17C16.34 177.42 23.23 185.779 31.23 192.719C39.19 199.619 48.14 205.31 57.79 209.54C68.48 214.23 79.63 217.19 91.23 218.54C103.99 220.03 117.01 219.29 129.57 216.57C129.57 216.57 145.49 213.02 160.4 204.83C197.86 184.25 216.29 139.209 219.34 131.509C214.4 137.519 209.46 143.589 204.52 149.719C201.64 153.289 198.78 156.85 195.94 160.41C182.27 178.59 169.09 189.64 163.48 193.41Z" fill="white"/>
<path d="M66.72 49.1597C69.01 48.8297 68.8 48.6799 69.97 48.5699C73.34 48.2499 78.6 49.0498 82.03 53.0298C85.35 56.8898 85.16 61.5795 85.08 62.7495C85.07 65.8695 85.05 68.9997 85.04 72.1197C85.01 77.9297 84.99 83.7394 84.96 89.5494C84.93 95.9094 84.9 102.269 84.88 108.639C84.82 121.879 84.78 123.249 84.79 127.969C84.81 135.659 84.92 141.869 85.01 145.799C85.03 149.989 85.05 154.189 85.07 158.379C85.08 160.139 85.1 161.909 85.11 163.669C85.07 165.149 84.79 167.649 83.27 170.179C82.76 171.029 82.2 171.729 81.67 172.299C80.82 173.159 79.38 174.39 77.29 175.28C76.7 175.53 75.28 176.079 73.35 176.299C69.08 176.779 67.28 175.049 65.59 176.129C64.81 176.629 63.99 177.759 63.94 180.589C64 181.149 64.19 182.07 64.86 182.87C65.75 183.95 66.98 184.23 68.5 184.58C68.82 184.65 69.93 184.9 72.15 184.95C73.52 184.98 74.82 185.01 76.42 184.78C77.12 184.68 80.42 184.149 84.07 181.879C85.97 180.699 87.2 179.52 87.47 179.25C88.53 178.22 90.9 175.69 92.26 171.69C92.75 170.24 92.93 169.129 93.13 167.839C93.75 163.869 93.35 161.559 93.2 156.089C93.14 154.029 93.19 151.96 93.17 149.9C93.14 144.93 93.16 146.11 93.09 132.46C93.01 114.7 93 116.96 93 113.4C93 109.91 93.01 110.36 93.09 94.0699C93.12 88.0799 93.14 82.0899 93.17 76.1099C93.19 71.0299 93.21 65.9594 93.24 60.8794C93.36 59.0294 93.35 55.3995 91.53 51.4195C91.11 50.5095 88.35 44.6897 81.7 41.6997C76.79 39.4897 72.3 39.95 69.93 40.19C67.67 40.42 65.83 40.9099 64.54 41.3199C63.67 42.1199 57.93 47.4597 59 49.1597C59.67 50.1897 62.88 49.7197 66.72 49.1597Z" fill="white"/>
<path d="M64.67 25.9702C69.64 22.6402 80.24 17.2605 80.83 17.0005C81.16 16.8505 81.5 16.7 81.83 16.56C82.03 16.47 82.23 16.39 82.43 16.31C81.06 16.91 82.13 16.4403 82.46 16.3003C83.59 15.8303 84.74 15.3904 85.89 14.9604C88.83 13.8704 91.81 12.9008 94.83 12.0708C99.53 10.7708 104.31 9.81036 109.14 9.13036C109.88 9.02036 109.04 9.15063 108.93 9.16063C109.12 9.15063 109.33 9.11056 109.53 9.08056C109.93 9.03056 110.34 8.98017 110.74 8.93017C111.69 8.82017 112.63 8.72013 113.58 8.64013C115.39 8.48013 117.21 8.36075 119.03 8.28075C122.34 8.14075 125.65 8.15028 128.95 8.30028C131.57 8.42028 134.19 8.63017 136.8 8.93017C137.31 8.99017 137.82 9.0506 138.32 9.1206C139.22 9.2306 137.25 8.97032 138.12 9.09032C138.58 9.16032 139.04 9.22052 139.51 9.29052C141.25 9.55052 142.97 9.85067 144.7 10.2007C149.4 11.1307 154.04 12.3501 158.58 13.8901C159.97 14.3601 161.35 14.8709 162.72 15.4009C163.47 15.6909 164.22 15.9903 164.96 16.3003C165.14 16.3703 165.32 16.47 165.5 16.52C165.4 16.49 164.66 16.1607 165.32 16.4507C165.71 16.6207 166.09 16.7807 166.48 16.9507C168.9 18.0207 171.29 19.1802 173.63 20.4302C178.05 22.7902 182.27 25.5009 186.29 28.4809C186.57 28.6909 186.84 28.8901 187.12 29.1001C187.25 29.2001 187.38 29.3109 187.52 29.4009C187.47 29.3609 186.74 28.7904 187.27 29.2104C187.77 29.6104 188.28 30.0006 188.78 30.4106C189.58 31.0606 190.36 31.7104 191.13 32.3804C192.88 33.9004 194.57 35.4901 196.2 37.1401C198.26 39.2301 200.24 41.4102 202.1 43.6802C202.45 44.1002 202.79 44.5207 203.13 44.9507C203.3 45.1607 203.47 45.3803 203.64 45.5903C203.93 45.9603 203.03 44.8004 203.31 45.1704C203.39 45.2804 203.47 45.3809 203.55 45.4809C203.96 46.0109 204.35 46.5501 204.74 47.1001C208.31 52.1001 211.34 57.4906 213.79 63.1206C213.92 63.4206 214.3 64.3806 213.81 63.1606C213.91 63.4206 214.02 63.6809 214.13 63.9409C214.34 64.4509 214.54 64.9602 214.74 65.4702C215.06 66.3002 215.36 67.1304 215.65 67.9604C215.99 68.9404 216.3 69.9304 216.59 70.9204C217.62 74.4704 218.35 78.1208 218.87 81.7808C219.01 82.7808 218.76 80.8809 218.89 81.9009C218.94 82.2809 218.98 82.6508 219.03 83.0308C219.12 83.7708 219.19 84.5202 219.26 85.2602C219.4 86.8202 219.5 88.3809 219.56 89.9409C219.67 92.9409 219.62 95.9302 219.46 98.9302C219.35 101.08 219.18 103.23 218.92 105.38C218.88 105.68 218.84 105.981 218.81 106.281C218.95 104.951 218.84 106.03 218.79 106.35C218.68 107.08 218.57 107.811 218.44 108.531C218.19 109.971 217.9 111.39 217.56 112.81C216.79 116.09 215.79 119.331 214.58 122.481C214.42 122.891 214.26 123.3 214.1 123.71C214.02 123.91 213.94 124.131 213.85 124.331C214.2 123.581 213.94 124.131 213.87 124.291C213.49 125.161 213.1 126.03 212.69 126.89C211.99 128.36 211.24 129.8 210.45 131.22C209.08 133.67 207.56 136.041 205.93 138.321C205.6 138.781 205.27 139.241 204.93 139.691C204.77 139.901 204.61 140.121 204.45 140.331C203.83 141.151 205.01 139.621 204.39 140.411C203.83 141.131 203.26 141.831 202.68 142.541C200.33 145.401 197.8 148.111 195.11 150.661C192.88 152.781 190.54 154.77 188.12 156.67C187.97 156.79 187.54 157.16 188.22 156.6C188.06 156.73 187.89 156.851 187.72 156.981C187.38 157.231 187.05 157.491 186.71 157.741C185.97 158.291 185.22 158.82 184.46 159.35C183.41 160.08 182.35 160.791 181.29 161.491C179.08 162.951 176.81 164.341 174.46 165.571C173.18 166.241 171.87 166.851 170.55 167.441C170.05 167.661 171.28 167.14 170.77 167.35C170.6 167.42 170.43 167.49 170.26 167.56C169.91 167.7 169.56 167.84 169.21 167.97C168.4 168.28 167.58 168.561 166.75 168.831C163.85 169.771 160.88 170.461 157.86 170.911C156.92 171.051 155.88 172.001 155.42 172.781C154.91 173.651 154.69 174.94 155.01 175.92C155.33 176.91 155.94 177.861 156.88 178.361C157.91 178.901 158.88 178.94 160.02 178.77C166.54 177.78 172.84 175.62 178.68 172.56C184.01 169.76 189.02 166.24 193.76 162.55C201.12 156.82 207.54 150.04 212.96 142.47C220.73 131.63 225.39 118.96 227.04 105.76C228.39 94.9002 227.93 83.7501 225.55 73.0601C223.84 65.4001 220.78 58.0404 216.97 51.2104C211.81 41.9604 204.92 33.6006 196.92 26.6606C188.96 19.7606 180.01 14.0703 170.36 9.84032C159.67 5.15032 148.52 2.19032 136.92 0.840322C124.16 -0.649678 111.14 0.0900486 98.58 2.81005C98.58 2.81005 82.66 6.36028 67.75 14.5503C30.29 35.1303 11.86 80.1706 8.81 87.8706C13.75 81.8606 18.69 75.7906 23.63 69.6606C26.51 66.0906 29.37 62.5302 32.21 58.9702C45.88 40.7902 59.06 29.7402 64.67 25.9702Z" fill="white"/>
<path d="M161.44 170.22C159.15 170.55 159.36 170.699 158.19 170.809C154.82 171.129 149.56 170.329 146.13 166.35C142.81 162.49 143 157.8 143.08 156.63C143.09 153.51 143.11 150.38 143.12 147.26C143.15 141.45 143.17 135.64 143.2 129.83C143.23 123.47 143.26 117.11 143.28 110.74C143.34 97.5001 143.38 96.1301 143.37 91.41C143.35 83.7201 143.24 77.51 143.15 73.58C143.13 69.39 143.11 65.1899 143.09 60.9999C143.08 59.2399 143.06 57.4699 143.05 55.7099C143.09 54.2299 143.37 51.7301 144.89 49.2001C145.4 48.3501 145.96 47.65 146.49 47.08C147.34 46.22 148.78 44.9895 150.87 44.0995C151.46 43.8495 152.88 43.3 154.81 43.08C159.08 42.6 160.88 44.3299 162.57 43.2499C163.35 42.7499 164.17 41.6199 164.22 38.7899C164.16 38.2299 163.97 37.3097 163.3 36.5097C162.41 35.4297 161.18 35.1497 159.66 34.7997C159.34 34.7297 158.23 34.4796 156.01 34.4296C154.64 34.3996 153.34 34.3695 151.74 34.5995C151.04 34.6995 147.74 35.2299 144.09 37.4999C142.19 38.6799 140.96 39.8598 140.69 40.1298C139.63 41.1598 137.26 43.6903 135.9 47.6903C135.41 49.1403 135.23 50.2499 135.03 51.5399C134.41 55.5099 134.81 57.8199 134.96 63.2899C135.02 65.3499 134.97 67.4104 134.99 69.4804C135.02 74.4504 135 73.2698 135.07 86.9198C135.15 104.68 135.16 102.42 135.16 105.98C135.16 109.47 135.15 109.019 135.07 125.309C135.04 131.299 135.02 137.289 134.99 143.269C134.97 148.349 134.95 153.42 134.92 158.5C134.8 160.35 134.81 163.98 136.63 167.96C137.05 168.87 139.81 174.69 146.46 177.68C151.37 179.89 155.86 179.43 158.23 179.19C160.49 178.96 162.33 178.469 163.62 178.059C164.49 177.259 170.23 171.92 169.16 170.22C168.48 169.19 165.27 169.66 161.44 170.22Z" fill="white"/>
<defs>
<linearGradient id="paint0_linear_3_3770" x1="2.4937" y1="109.728" x2="222.978" y2="109.728" gradientUnits="userSpaceOnUse">
<stop offset="0.2102" stop-color="#1C2747"/>
<stop offset="0.818" stop-color="#259938"/>
</linearGradient>
</defs>
</svg>
